<svg xmlns="http://www.w3.org/2000/svg" width="5000" height="2000" viewBox="0 0 5000 2000" preserveAspectRatio="xMinYMax meet"><path fill="#FFF" d="M5000.002 1180.29s-11.845 159.266-170.446 159.266l-2476.104-1.043c-27.582 121.273-138.86 219.688-272.02 219.688-133.165 0-244.44-98.745-272.024-220.02 0 0-1639.926 0-1643.857.024C6.926 1338.584.115 1180.6.115 1180.6V832.436S-10.2 672.887 164.84 672.887h2699.853c27.582-121.265 138.86-218.308 272.02-218.308 133.165 0 244.44 97.042 272.024 218.308h1420.818c175.04 0 170.42 157.23 170.42 157.23l.026 350.172z"/><path fill="#F90" d="M1865.78 1740.772c-7.71 0-15.406 2.913-21.28 8.764-11.833 11.748-11.892 30.887-.167 42.706 11.783 11.843 30.887 11.89 42.72.142 11.84-11.748 11.9-30.862.15-42.705-5.907-5.947-13.665-8.908-21.423-8.908zM2060.456 1779.356c-7.934 0-15.715 3.222-21.34 8.835-5.627 5.64-8.86 13.407-8.86 21.366 0 7.935 3.233 15.728 8.86 21.34 5.625 5.615 13.406 8.86 21.34 8.86 7.947 0 15.74-3.245 21.354-8.86 5.637-5.612 8.857-13.405 8.857-21.34 0-7.96-3.22-15.728-8.857-21.365-5.614-5.612-13.407-8.834-21.354-8.834zM1966.933 1770.167c-1.99-.403-3.98-.593-5.934-.593-14.106 0-26.72 9.948-29.585 24.302-3.246 16.367 7.354 32.26 23.72 35.53 16.345 3.244 32.25-7.344 35.507-23.71 3.28-16.367-7.366-32.26-23.71-35.53zM1794.663 1698.304c-5.188-3.506-11.05-5.164-16.852-5.164-9.698 0-19.245 4.666-25.07 13.335-9.32 13.833-5.673 32.593 8.16 41.9 13.843 9.333 32.603 5.66 41.923-8.147 9.332-13.833 5.66-32.616-8.16-41.924zM1568.013 1428.354c16.342-3.197 27.014-19.067 23.816-35.435-2.845-14.4-15.47-24.397-29.622-24.397-1.918 0-3.87.19-5.826.568-16.38 3.223-27.06 19.092-23.828 35.46 3.21 16.366 19.068 27.025 35.46 23.804zM1618.854 1482.83c-4.81-11.652-16.072-18.71-27.926-18.71-3.85 0-7.734.733-11.5 2.273-15.432 6.348-22.773 23.994-16.426 39.437 6.348 15.42 23.982 22.763 39.412 16.415 15.42-6.348 22.776-23.994 16.44-39.414zM1700.89 1629.566c-7.71 0-15.406 2.913-21.28 8.764-11.83 11.772-11.892 30.887-.155 42.706 11.748 11.843 30.875 11.914 42.72.143 11.817-11.75 11.9-30.864.128-42.707-5.898-5.946-13.656-8.907-21.413-8.907zM1637.755 1552.255c-5.744 0-11.56 1.61-16.686 5.046-13.894 9.238-17.67 27.974-8.423 41.877 9.227 13.88 27.975 17.646 41.865 8.41 13.87-9.238 17.658-27.975 8.408-41.855-5.814-8.763-15.394-13.477-25.165-13.477zM1682.368 1460.614c4.785 11.274 10.162 22.43 15.94 33.207 3.493 6.54 11.642 8.98 18.167 5.496 6.525-3.505 8.988-11.653 5.484-18.167-5.4-10.09-10.423-20.536-14.9-31.053-2.167-5.093-7.13-8.148-12.34-8.148-1.765 0-3.554.33-5.26 1.065-6.832 2.914-9.982 10.8-7.092 17.6zM1682.438 1367.788c-1.184-6.466-6.82-11.014-13.205-11.014-.793 0-1.598.047-2.39.213-7.31 1.326-12.13 8.29-10.827 15.586 2.18 12.032 4.928 24.136 8.172 35.907 1.955 7.153 9.344 11.346 16.486 9.38 7.152-1.942 11.37-9.355 9.402-16.485-3.03-11.037-5.6-22.313-7.638-33.587zM1769.415 1570.777c5.59-4.855 6.182-13.335 1.326-18.925-7.497-8.646-14.708-17.717-21.388-26.98-2.63-3.623-6.738-5.54-10.908-5.54-2.723 0-5.46.827-7.852 2.533-5.992 4.358-7.354 12.743-2.996 18.76 7.152 9.9 14.863 19.588 22.88 28.825 4.87 5.614 13.336 6.183 18.94 1.327zM1833.935 1610.002c-9.213-6.75-18.238-14-26.812-21.555-2.57-2.25-5.72-3.34-8.857-3.34-3.744 0-7.45 1.54-10.08 4.548-4.902 5.566-4.38 14.046 1.21 18.95 9.165 8.076 18.817 15.82 28.67 23.045 5.98 4.382 14.378 3.08 18.76-2.89 4.392-5.968 3.09-14.376-2.89-18.758zM1990.522 1677.625c-11.227-2.084-22.512-4.69-33.504-7.745-1.23-.355-2.44-.52-3.635-.52-5.863 0-11.238 3.907-12.92 9.828-1.967 7.13 2.19 14.543 9.31 16.533 11.794 3.293 23.862 6.088 35.894 8.29 7.297 1.35 14.283-3.48 15.633-10.753 1.34-7.294-3.48-14.305-10.778-15.632zM1908.427 1652.684c-10.492-4.523-20.89-9.593-30.934-15.04-2.05-1.113-4.227-1.635-6.383-1.635-4.762 0-9.38 2.533-11.82 7.01-3.553 6.515-1.137 14.662 5.377 18.19 10.742 5.852 21.898 11.275 33.102 16.107 6.81 2.938 14.72-.19 17.645-6.987 2.96-6.798-.2-14.71-6.988-17.646zM2077.237 1686.247c-11.428.213-22.975-.095-34.38-.9-1.255-.095-2.464 0-3.636.214-5.767 1.185-10.278 6.04-10.704 12.2-.545 7.39 5.033 13.808 12.41 14.353 12.188.876 24.574 1.208 36.81.995 7.437-.166 13.323-6.277 13.17-13.667-.143-7.437-6.255-13.31-13.67-13.193zM3348.29 275.264c7.71 0 15.408-2.925 21.28-8.775 11.833-11.75 11.892-30.876.167-42.7-11.783-11.838-30.887-11.897-42.717-.148-11.844 11.766-11.902 30.874-.154 42.712 5.91 5.937 13.666 8.91 21.424 8.91zM3153.614 236.686c7.936 0 15.715-3.228 21.342-8.84 5.625-5.633 8.857-13.413 8.857-21.366 0-7.946-3.232-15.728-8.857-21.347-5.627-5.62-13.406-8.853-21.342-8.853-7.947 0-15.74 3.232-21.354 8.853-5.637 5.62-8.857 13.4-8.857 21.347 0 7.965 3.22 15.733 8.857 21.365 5.614 5.613 13.407 8.84 21.354 8.84zM3247.14 245.863c1.988.403 3.98.593 5.932.593 14.105 0 26.72-9.942 29.584-24.308 3.246-16.355-7.354-32.25-23.72-35.512-16.345-3.263-32.25 7.343-35.507 23.71-3.28 16.368 7.366 32.255 23.71 35.517zM3513.18 386.47c7.71 0 15.41-2.92 21.282-8.775 11.832-11.754 11.89-30.88.154-42.706-11.748-11.838-30.875-11.903-42.72-.143-11.817 11.76-11.9 30.874-.128 42.705 5.897 5.945 13.655 8.918 21.413 8.918zM3419.407 317.733c5.188 3.493 11.05 5.163 16.854 5.163 9.7 0 19.245-4.666 25.07-13.335 9.32-13.832 5.675-32.603-8.16-41.912-13.843-9.326-32.603-5.66-41.923 8.16-9.332 13.84-5.66 32.61 8.16 41.925zM3646.06 587.677c-16.344 3.197-27.014 19.073-23.816 35.43 2.842 14.406 15.467 24.4 29.62 24.4 1.917 0 3.872-.188 5.825-.567 16.378-3.222 27.06-19.09 23.827-35.458-3.21-16.362-19.067-27.02-35.457-23.805zM3595.218 533.205c4.807 11.66 16.07 18.712 27.926 18.712 3.848 0 7.732-.74 11.498-2.286 15.432-6.34 22.775-23.992 16.428-39.418-6.35-15.426-23.982-22.78-39.414-16.433-15.42 6.36-22.776 24.005-16.438 39.425zM3576.315 463.78c5.744 0 11.56-1.622 16.688-5.044 13.89-9.244 17.67-27.974 8.42-41.87-9.227-13.887-27.973-17.653-41.865-8.428-13.87 9.237-17.658 27.98-8.408 41.865 5.814 8.753 15.394 13.478 25.165 13.478zM3531.702 555.41c-4.783-11.257-10.16-22.425-15.94-33.195-3.493-6.538-11.642-8.99-18.167-5.49-6.525 3.5-8.988 11.643-5.482 18.168 5.4 10.084 10.422 20.523 14.898 31.034 2.167 5.104 7.13 8.166 12.34 8.166 1.765 0 3.554-.35 5.26-1.083 6.832-2.897 9.983-10.783 7.092-17.6zM3531.632 648.242c1.184 6.478 6.822 11.014 13.205 11.014.793 0 1.598-.047 2.393-.2 7.307-1.327 12.127-8.303 10.824-15.6-2.18-12.037-4.928-24.123-8.172-35.906-1.955-7.142-9.344-11.34-16.486-9.38-7.152 1.954-11.37 9.35-9.402 16.49 3.03 11.028 5.6 22.32 7.638 33.582zM3380.136 406.028c9.215 6.75 18.238 14.005 26.812 21.555 2.57 2.244 5.72 3.346 8.86 3.346 3.74 0 7.448-1.547 10.077-4.56 4.902-5.556 4.38-14.04-1.21-18.933-9.165-8.082-18.817-15.84-28.67-23.063-5.98-4.376-14.378-3.08-18.76 2.89-4.392 5.98-3.09 14.382 2.89 18.764zM3223.548 338.41c11.227 2.073 22.514 4.68 33.504 7.752 1.23.338 2.44.504 3.635.504 5.863 0 11.24-3.896 12.922-9.824 1.964-7.136-2.192-14.543-9.31-16.533-11.797-3.287-23.865-6.076-35.896-8.285-7.295-1.35-14.283 3.477-15.633 10.754-1.337 7.3 3.483 14.292 10.778 15.63zM3305.644 363.353c10.492 4.523 20.89 9.593 30.934 15.046 2.05 1.112 4.23 1.628 6.383 1.628 4.763 0 9.382-2.534 11.82-7.01 3.554-6.515 1.138-14.663-5.376-18.204-10.742-5.845-21.898-11.257-33.102-16.106-6.81-2.938-14.72.195-17.646 7-2.962 6.802.2 14.707 6.988 17.645zM3444.657 445.253c-5.59 4.86-6.184 13.34-1.326 18.937 7.497 8.634 14.71 17.706 21.388 26.96 2.63 3.63 6.74 5.556 10.908 5.556 2.725 0 5.46-.823 7.852-2.547 5.992-4.34 7.355-12.744 2.996-18.742-7.152-9.9-14.863-19.6-22.88-28.832-4.868-5.608-13.335-6.194-18.937-1.333zM3136.833 329.777c11.428-.207 22.975.1 34.38.918 1.255.095 2.464 0 3.636-.23 5.767-1.167 10.278-6.04 10.706-12.193.545-7.39-5.033-13.814-12.412-14.342-12.186-.888-24.574-1.208-36.81-.994-7.437.147-13.32 6.265-13.17 13.666.144 7.42 6.255 13.312 13.67 13.175z"/><path fill="#F33" d="M278.4 587.997c-59.847 0-110.825-21.52-151.524-62.022-40.723-40.55-61.37-92.28-61.37-153.04.19-59.56 20.856-110.526 61.472-151.23 40.62-40.717 91.582-61.46 151.467-61.46 59.967 0 112.248 18.973 155.385 56.48l12.412 10.765-73.71 80.722-11.726-9.202c-24.137-18.92-51.066-28.127-82.36-28.127-31.16.16-55.444 9.434-74.128 28.347-18.717 18.954-27.824 42.776-27.824 72.828.148 32.42 9.344 57.256 28.098 75.866 18.77 18.618 43.107 27.666 74.385 27.666 31.906 0 58.605-9.055 81.635-27.7l11.76-9.522 73.854 80.87-12.37 11.523C390.9 568.27 338.608 588 278.445 588h-.045zM923.456 587.997V175.67h97.018v327.435h218.29v84.892M1311.528 587.997v-315.31h-121.273V175.67h363.818v97.018h-145.527v315.31M1798.927 586.587c-51.113 0-89.936-14.963-124.055-44.482-34.795-30.08-48.035-67.416-48.035-110.963V175.67h99.918l1.055 235.948c0 24.077 9.76 47.213 24.562 59.02 12.46 9.925 27.477 13.37 49.48 13.37 22.016 0 38.1-5.908 52.346-17.313 13.193-10.54 27.31-31.834 27.31-55.898V175.67h97.02v255.472c0 43.54-16.995 80.87-51.79 110.963-34.134 29.52-76.708 44.482-127.81 44.482zM2301.33 587.997l-91.77-130.735-36.76-1.237-1.492 130.054-107.89 1.195V175.67h175.903c123.228 0 171.855 71.698 172.032 128.91.31 95.67-39.473 117.307-81.053 137.386l103.425 146.03H2301.33zm-23.317-227.44c20.855-15.478 20.855-85.885-8.953-91.848-39.936-8.356-101.092-4.638-101.092-4.638l.143 104.977s87.46 8.153 109.903-8.492zM2487.87 587.997V173.023l315.31-.278v92.014l-212.003.78-.2 81.623 175.82-1.048v84.228H2584.89v72.762h218.29v84.892M672.442 586.587c-51.12 0-90.61-14.963-124.725-44.482C512.917 512.025 499 474.69 499 431.142V175.67h101.27l1.043 235.948c0 24.077 9.76 47.213 24.574 59.02 12.46 9.925 27.482 13.37 49.48 13.37 22.016 0 37.424-5.908 51.672-17.313 13.19-10.54 26.634-31.834 26.634-55.898V175.67h97.018v255.472c0 43.54-16.32 80.87-51.12 110.963-34.126 29.52-76.026 44.482-127.13 44.482z"/><path fill="#F90" d="M1143.913 931.373c.13-24.112 10.256-43.346 14.816-48.296 6.1-6.514 24.763-17.575 81.538-17.575 57.225-.07 76.197 9.45 82.44 15.088 4.937 4.5 17.017 24.09 15.17 50.5-1.825 26.386-21.235 23.472-21.235 23.472l-154.066.095s-18.734.805-18.664-23.284zm3431.988 23.33l154.08-.142s19.444 2.915 21.245-23.472c1.848-26.362-10.232-45.95-15.23-50.45-6.158-5.662-25.154-15.184-82.38-15.16-56.774.07-75.465 11.085-81.526 17.622-4.597 4.975-14.687 24.23-14.782 48.272-.118 24.113 18.593 23.332 18.593 23.332zm-908.477-.023l154.03-.095s19.423 2.89 21.27-23.496c1.85-26.41-10.255-46-15.204-50.476-6.208-5.638-25.204-15.16-82.405-15.112-56.8 0-75.488 11.038-81.55 17.6-4.573 4.95-14.71 24.183-14.806 48.27-.095 24.113 18.663 23.308 18.663 23.308zm1332.58 225.61s-11.846 159.265-170.447 159.265l-2476.104-1.042c-27.582 121.272-138.86 219.688-272.02 219.688-133.165 0-244.44-98.746-272.024-220.02 0 0-1639.926 0-1643.857.024C6.926 1338.584.115 1180.598.115 1180.598v-348.16S-10.2 672.887 164.84 672.887h2699.853c27.582-121.267 138.86-218.31 272.02-218.31 133.165 0 244.44 97.043 272.024 218.31h1420.818c175.04 0 170.42 157.228 170.42 157.228l.026 350.174zm-4462.64-75.014s.07-31.62-28.567-33.28c-29.727-1.704-40.717.05-40.717.05s-26.435-1.186-30.33 31.69c-3.897 32.853-2.144 32.853-12.52 38.94-6.478 3.79-26.23 10.185-85.376 10.23-58.965.05-77.393-12.197-83.102-19.54-5.33-6.75-13.643-25.628-16.27-77.88-.24-5.068-2.442-15.3 15.18-16.27 17.577-.996 203.606-.31 243.16-.19 39.65.118 38.503-34.748 38.503-34.748-.06-84.393-8.93-160.212-41.225-184.04-31.977-23.544-80.912-42.35-163.008-42.304-76.174.024-126.756 16.106-154.658 49.054-27.084 32.024-40.207 90.268-40.135 178.024.046 94.484 13.25 155.783 40.276 187.31 27.76 32.497 81.385 48.225 163.955 48.153 69.757-.023 118.028-9.475 147.388-28.873 31.573-20.795 47.515-56.373 47.444-106.326zm433.95-316.137c-20.928.022-51.98.165-51.98.165s-25.57-3.222-35.114 20.464c-9.476 23.71-65.788 212.037-65.788 212.037l-21.473 68.19-5.046-1.017-90.576-278.667s-3.197-20.82-29.346-20.796c-26.127.047-51.447-.048-51.447-.048s-28.896.188-19.635 26.41c6.076 17.242 122.055 368.507 128.686 388.545 6.645 20.038 35.932 26.315 35.932 26.315h61.607s23.674-6.467 32.924-28.068c9.237-21.602 130.106-389.422 130.106-389.422s7.983-24.11-18.853-24.11zm467.563 316.112s.047-31.573-28.637-33.207c-29.704-1.753-40.683 0-40.683 0s-26.434-1.16-30.33 31.668c-3.908 32.9-2.154 32.9-12.506 38.963-6.49 3.813-26.267 10.21-85.362 10.232-59.002.048-77.44-12.222-83.14-19.54-5.304-6.774-13.618-25.63-16.247-77.88-.26-5.07-2.464-15.278 15.147-16.296 17.61-.972 203.63-.285 243.22-.166 39.59.118 38.478-34.7 38.478-34.7-.105-84.465-8.94-160.236-41.248-184.064-31.965-23.567-80.89-42.374-162.984-42.327-76.174.024-126.79 16.106-154.67 49.054-27.096 32.047-40.22 90.267-40.146 178.023.047 94.484 13.24 155.76 40.277 187.356 27.748 32.426 81.408 48.177 163.98 48.13 69.743-.07 117.968-9.522 147.386-28.92 31.548-20.726 47.513-56.35 47.466-106.328zm418.46-178.26c-3.292-111.184-46.056-147.92-132.878-147.825-37.756.023-69.305 8.503-94.39 25.296 0 0-.804-14.874-32.71-15.703-31.928-.806-34.107.047-34.107.047s-31.93-5.73-31.573 34.96c.31 40.74.262 351.052.262 382.98s28.362 32.497 28.362 32.497l38.502-.047s30.816 1.61 31.053-35.838c.213-37.377-.19-230.466-.19-230.466-.095-94.033 43.94-106.137 82.31-106.137 44.27-.048 56.656 35.884 56.064 65.8-.567 29.915 26.458 29.986 26.458 29.986l33.02-.023s30.02 1.445 29.82-35.53zm411.782-149.01c-22.312-.355-1.693.758-33.848.758-32.213 0-35.658 27.38-35.658 27.38l-42.078 165.898s-20.264 79.467-22.69 89.083c-2.417 9.522-10.163 13.075-15.374-2.036-5.164-15.136-30.934-88.657-30.934-88.657L2030.21 801.36s-2.926-21.814-35.92-22.62l-33.02-.758s-45.62-.095-22.715 58.314c7.225 18.357 98.984 236.103 129.422 325.873 3.387 10.09 23.152 72.123 23.53 86.666.913 36.88-18.106 53.98-29.073 56.73-30.887 7.696-29.857-.12-50.486 1.633-21.484 1.847-22.965 22.004-22.965 22.004v37.944c0 23.118 25.783 29.276 25.783 29.276 12.672 2.18 11.783 1.682 20.252 1.682 41.793 0 74.81-13.596 98.023-40.337 21.65-24.896 40.35-67.72 57.155-130.914l107.56-401.29s19.506-46.826-28.637-47.584zm702.22 11.298c-32.188.07-8.24 0-41.806 0-33.586 0-40.266 33.374-40.266 33.374s-59.523 235.13-62.578 247.093c-3.057 11.96-8.457-.237-8.457-.237l-10.397-42.848-48.13-196.594s-10.35-40.835-35.93-40.788c-25.606.07-39.65 0-67.15 0-27.548 0-32.9 38.253-32.9 38.253l-49.15 198.773-10.587 43.653s-6.11 10.634-8.432.496c-2.37-10.137-11.37-44.79-11.37-44.79l-50.76-198.868s-3.267-37.494-38.204-37.424c-34.914.048-14.566.095-46.21.095-31.622 0-16.985 41.308-16.985 41.308s88.256 326.133 98.084 362.444c9.83 36.357 41.048 37.52 41.048 37.52h53.934s34.63-7.25 43.818-38.965c9.19-31.69 48.414-199.887 48.414-199.887l13.29-54.95s52.462 218.242 61.06 253.866c8.6 35.623 41.403 39.935 41.403 39.935h51.73s34.084-1.586 45.193-40.29c11.037-38.68 100.926-360.762 100.926-360.762s12.626-40.455-19.587-40.408zm485.044 414.127V948.64c0-70.157-31.184-153.84-172.14-153.84-45.073 0-70.405 8.03-106.788 23.993v-156.85s-.13-31.383-29.004-32.4c-28.873-1.067-3.73 0-35.896 0-32.164 0-32.117 33.23-32.117 33.23v542.27s-1.777 35.48 28.73 35.457c30.53-.048 5.98 0 39.852 0 33.847.023 28.435-37.093 28.435-37.093V995.49c0-58.81 12.72-82.474 21.72-91.995 8.74-9.262 32.65-20.347 87.153-20.347 50.83 0 73.035 21.08 73.035 70.49v249.72s-5.115 37.165 27.88 37.142c33.042-.048 4.358 0 38.204 0 33.847.023 30.935-37.093 30.935-37.093zm487.293-98.13s.07-31.575-28.59-33.257c-29.727-1.73-40.717.024-40.717.024s-26.41-1.185-30.318 31.668c-3.86 32.9-2.107 32.9-12.506 38.987-6.514 3.788-26.22 10.16-85.363 10.23-58.978.024-77.405-12.222-83.138-19.564-5.28-6.773-13.62-25.604-16.225-77.855-.285-5.092-2.488-15.3 15.135-16.318 17.646-.948 203.605-.285 243.186-.166 39.65.118 38.488-34.7 38.488-34.7-.07-84.44-8.88-160.213-41.236-184.088-31.953-23.544-80.89-42.327-162.96-42.304-76.222.024-126.84 16.13-154.694 49.078-27.096 32.023-40.172 90.268-40.123 178 .07 94.508 13.217 155.76 40.242 187.356 27.783 32.427 81.432 48.178 163.98 48.13 69.755-.07 118.003-9.498 147.42-28.92 31.502-20.748 47.49-56.324 47.42-106.302zm420.12-178.31c-3.247-111.158-46.07-147.895-132.88-147.8-37.756.023-69.258 8.503-94.318 25.296 0 0-.828-14.874-32.758-15.703-31.905-.806-34.085.023-34.085.023s-31.977-5.756-31.598 35.008c.31 40.693.262 351.005.262 382.934 0 31.952 28.35 32.52 28.35 32.52l38.538-.046s30.768 1.587 31.03-35.86c.26-37.4-.19-230.442-.19-230.442-.072-94.057 43.938-106.16 82.285-106.185 44.316-.022 56.656 35.886 56.11 65.8-.614 29.964 26.435 30.06 26.435 30.06l32.994-.048s30.058 1.467 29.822-35.554zm488.43 178.333s.022-31.598-28.592-33.28c-29.75-1.728-40.74.025-40.74.025s-26.41-1.138-30.317 31.715c-3.908 32.877-2.13 32.877-12.507 38.916-6.538 3.838-26.27 10.186-85.34 10.257-59.002.047-77.453-12.223-83.186-19.565-5.307-6.75-13.597-25.557-16.226-77.81-.26-5.14-2.487-15.348 15.16-16.342 17.6-.924 203.604-.31 243.183-.213 39.628.142 38.515-34.7 38.515-34.7-.117-84.44-8.953-160.19-41.26-184.04-31.953-23.545-80.936-42.352-162.984-42.304-76.196.046-126.79 16.105-154.67 49.028-27.095 32.048-40.218 90.292-40.122 178 .023 94.51 13.217 155.808 40.242 187.405 27.783 32.402 81.385 48.153 163.956 48.082 69.825-.023 118.003-9.475 147.42-28.873 31.55-20.772 47.49-56.348 47.468-106.302zM261.11 954.68l154.055-.118s19.422 2.914 21.246-23.496c1.86-26.363-10.23-45.975-15.18-50.476-6.23-5.66-25.216-15.135-82.43-15.11-56.798.047-75.464 11.084-81.55 17.62-4.572 4.976-14.662 24.185-14.78 48.273-.094 24.065 18.64 23.307 18.64 23.307z"/></svg>